{"scene":0,"asset":{"generator":"ImageToStl.com","version":"2.0"},"scenes":[{"name":"Scene","nodes":[0]}],"nodes":[{"name":"Node0","children":[1]},{"name":"Node1","mesh":0}],"materials":[{"name":"x1","pbrMetallicRoughness":{"baseColorFactor":[0.0,0.0,0.0,1.0],"metallicFactor":0.0,"roughnessFactor":1.0},"doubleSided":true}],"meshes":[{"name":"Mesh0","primitives":[{"indices":3,"material":0,"attributes":{"POSITION":0,"NORMAL":1,"TEXCOORD_0":2}}]}],"accessors":[{"bufferView":0,"componentType":5126,"count":3539,"type":"VEC3","min":[-1.8135673,-0.34825182,-0.0048141032],"max":[1.8135673,0.34409395,4.8249683]},{"bufferView":1,"componentType":5126,"count":3539,"type":"VEC3"},{"bufferView":2,"componentType":5126,"count":3539,"type":"VEC2"},{"bufferView":3,"componentType":5123,"count":42984,"type":"SCALAR"}],"bufferViews":[{"target":34962,"buffer":0,"byteLength":42468,"byteOffset":0},{"target":34962,"buffer":0,"byteLength":42468,"byteOffset":42468},{"target":34962,"buffer":0,"byteLength":28312,"byteOffset":84936},{"target":34963,"buffer":0,"byteLength":85968,"byteOffset":113248}],"buffers":[{"byteLength":199216,"uri":"data:application/octet-stream;base64,"}]}